<svg width="40" height="40" viewBox="0 0 40 40" fill="none" xmlns="http://www.w3.org/2000/svg">
<path fill-rule="evenodd" clip-rule="evenodd" d="M10.6343 30.115C7.91621 27.5971 6.21484 23.9972 6.21484 19.9999C6.21484 12.3866 12.3866 6.21484 19.9999 6.21484C27.6131 6.21484 33.7849 12.3866 33.7849 19.9999C33.7849 23.8388 32.2156 27.3113 29.6836 29.8107C27.1942 32.2681 23.7742 33.7849 19.9999 33.7849C16.3839 33.7849 13.0931 32.3927 10.6343 30.115ZM12.0342 28.3429C14.1169 26.1785 17.032 24.8344 20.2601 24.8344C23.3573 24.8344 26.1663 26.0717 28.2285 28.0836C26.1356 30.2138 23.222 31.5349 19.9999 31.5349C16.9105 31.5349 14.1048 30.3204 12.0342 28.3429ZM25.5464 16.9047C25.5464 19.8211 23.1763 22.1911 20.26 22.1911C17.3437 22.1911 14.9736 19.8211 14.9736 16.9047C14.9736 13.9884 17.3437 11.6183 20.26 11.6183C23.1763 11.6183 25.5464 13.9884 25.5464 16.9047Z" fill="#626675"/>
</svg>
