<svg width="40" height="40" viewBox="0 0 40 40" fill="none" xmlns="http://www.w3.org/2000/svg">
<path fill-rule="evenodd" clip-rule="evenodd" d="M9.87555 14.3637L8.68521 14.3637H8.68495V17.0083H8.68521H9.61083V17.0087H8.95199H7.62968V19.6533H6.96852V20.9754H5.64853L5.64853 21.3722H4.32622V20.7111H3.00391V22.0334H4.32622V22.6945H5.64853L5.64853 22.2978H6.96852V22.298V23.3557H5.64853L5.64853 23.7524H4.32622V24.4136H3.00391V25.7359H4.32622V25.0748H5.64853L5.64853 24.678H6.96852V24.9426H8.02663V27.1905H9.61083V28.248H11.726V29.1736H14.3706V30.2315H17.0153V30.8926H19.6599H22.3045V30.2315H24.9492V29.1736H27.5938V28.248H28.9166V27.1904H31.0313V24.9425H31.5602H32.0896V22.2979V19.6532H31.5602V17.0086H30.2379V14.364H29.7103V14.3637L28.5197 14.3637V11.7191H27.4621V10H24.8174V11.7191H23.2304V13.1736H20.7188V14.3637H19.5284V17.0083H19.5282V14.3637H18.3376V13.1736H15.693L15.693 11.7191H14.2389V10H11.5943V11.7191H9.87555V14.3637ZM32.0902 22.2978H33.4125V22.6945H34.7348V22.0334H36.0571V20.7111H34.7348V21.3722H33.4125V20.9754H32.0902V22.2978ZM33.4125 24.678H32.0902V23.3557H33.4125V23.7524H34.7348V24.4136H36.0571V25.7359H34.7348V25.0748H33.4125V24.678ZM13.7044 18.727H15.0268V19.3881H15.6879V20.7105H15.0268V21.3716H13.7044V20.7105H13.0433V19.3881H13.7044V18.727ZM23.8889 18.727H25.2112V19.3881H25.8724V20.7105H25.2112V21.3716H23.8889V20.7105H23.2278V19.3881H23.8889V18.727ZM20.0547 24.0164H18.7324V22.6941H20.0547V24.0164ZM21.113 25.8673H21.7742V26.5284H22.4353V27.1896H23.0965V26.5284H23.7577V25.8673H23.0965V26.5284H22.4353V25.8673H21.7742V25.2061H21.113V25.8673ZM20.4519 26.5284V25.8673H21.113V26.5284H20.4519ZM19.7907 26.5284V27.1896H20.4519V26.5284H19.7907ZM19.7907 26.5284V25.8673H19.1296V26.5284H19.7907Z" fill="white"/>
</svg>
