<svg width="40" height="40" viewBox="0 0 40 40" fill="none" xmlns="http://www.w3.org/2000/svg">
<path d="M16.7835 14.6335C18.0722 13.3447 18.0722 11.2553 16.7835 9.96655C15.4947 8.67782 13.4053 8.67782 12.1165 9.96655L4.96655 17.1165C3.67782 18.4053 3.67782 20.4947 4.96655 21.7835L5.48251 22.2994C6.51178 23.3287 8.18055 23.3287 9.20981 22.2994C9.89237 21.6169 10.999 21.6169 11.6816 22.2994C12.3642 22.982 12.3642 24.0886 11.6816 24.7712C10.6523 25.8005 10.6523 27.4692 11.6816 28.4985L12.1165 28.9335C13.4053 30.2222 15.4947 30.2222 16.7835 28.9335L25.5835 20.1335C26.1173 19.5996 26.9827 19.5996 27.5165 20.1335C28.0504 20.6673 28.0504 21.5327 27.5165 22.0665L24.2165 25.3665C22.9278 26.6553 22.9278 28.7447 24.2165 30.0335C25.5053 31.3222 27.5947 31.3222 28.8834 30.0335L35.4834 23.4335C36.7722 22.1447 36.7722 20.0553 35.4834 18.7665L35.0568 18.3399C34.0235 17.3066 32.3483 17.3066 31.3151 18.3398C30.6325 19.0224 29.5259 19.0224 28.8433 18.3399C28.1607 17.6573 28.1607 16.5506 28.8433 15.8681L28.8834 15.8279C29.8945 14.8169 29.8945 13.1776 28.8834 12.1665C27.5947 10.8778 25.5053 10.8778 24.2165 12.1665L15.6915 20.6915C15.0059 21.3772 13.8941 21.3772 13.2085 20.6915C12.5228 20.0059 12.5228 18.8941 13.2085 18.2085L16.7835 14.6335Z" fill="#525FEE"/>
</svg>
